<svg width="447" height="342" viewBox="0 0 447 342" fill="none" xmlns="http://www.w3.org/2000/svg">
<g clip-path="url(#clip0)">
<g opacity="0.85">
<path d="M439.014 124.813C443.748 124.813 447.585 120.711 447.585 115.649V52.4457C447.561 40.2361 438.309 30.3437 426.889 30.3176V30.2227L20.696 30.2227C15.24 30.25 10.0183 32.5898 6.17328 36.7281C2.22616 40.87 0.0022206 46.5326 0 52.4457L0 115.696C0 120.758 3.8372 124.861 8.57153 124.861C32.4985 124.861 51.8955 145.6 51.8955 171.183C51.8955 196.765 32.4985 217.504 8.57153 217.504C3.8372 217.504 0 221.607 0 226.669L0 289.872C0.0244267 302.082 9.27658 311.974 20.696 312H426.933C432.359 311.98 437.561 309.677 441.412 305.59C445.359 301.448 447.583 295.785 447.585 289.872V226.622C447.585 221.56 443.748 217.457 439.014 217.457C415.087 217.457 395.69 196.718 395.69 171.135C395.69 145.552 415.087 124.813 439.014 124.813ZM257.59 184.55C261.423 212.898 214.42 289.573 240.935 293.671L432.041 296.567C320.255 271.97 430.085 291.858 429.421 292.579C428.747 293.288 432.987 272.242 432.041 272.231L233.163 280.256C429.754 284.055 375.127 280.256 233.163 280.256V249.984C266.203 244.878 218.509 206.461 213.733 171.135C209.9 142.786 233.587 121.717 207.071 117.619L257.59 76.1884C467.037 87.6798 257.584 75.1781 257.59 76.1884C456.49 87.1011 395.823 59.5039 262.031 61.6816L170.986 128.161L187.641 194.64C187.982 199.689 238.21 307.131 250.373 281.448C258.306 348.087 407.863 116.2 408.169 111.658L358.184 48.552L332.114 115.649C334.066 115.675 363.178 121.509 363.202 123.596L358.184 144.021C325.144 149.127 252.815 149.224 257.59 184.55Z" fill="white"/>
</g>
</g>
<defs>
<clipPath id="clip0">
<rect width="447" height="342" fill="white"/>
</clipPath>
</defs>
</svg>
