<svg width="92" height="305" viewBox="0 0 92 305" fill="none" xmlns="http://www.w3.org/2000/svg">
<g clip-path="url(#clip0)">
<rect y="98.9873" width="92" height="4.65823" fill="#8139B0"/>
<rect y="213.114" width="92" height="4.65823" fill="#8139B0"/>
<rect y="80.3544" width="92" height="11.6456" fill="#8139B0"/>
<rect y="194.481" width="92" height="11.6456" fill="#8139B0"/>
<rect y="68.7089" width="92" height="4.65823" fill="#8139B0"/>
<rect y="182.835" width="92" height="4.65823" fill="#8139B0"/>
<rect y="53.5696" width="92" height="4.65823" fill="#8139B0"/>
<rect y="167.696" width="92" height="4.65823" fill="#8139B0"/>
<rect width="92" height="10.481" fill="#8139B0"/>
<rect y="114.127" width="92" height="10.481" fill="#8139B0"/>
<rect y="27.9494" width="92" height="18.6329" fill="#8139B0"/>
<rect y="142.076" width="92" height="18.6329" fill="#8139B0"/>
<rect y="300.456" width="92" height="4.65823" fill="#8139B0"/>
<rect y="281.823" width="92" height="11.6456" fill="#8139B0"/>
<rect y="270.177" width="92" height="4.65823" fill="#8139B0"/>
<rect y="255.038" width="92" height="4.65823" fill="#8139B0"/>
<rect y="229.418" width="92" height="18.6329" fill="#8139B0"/>
<rect y="13.9747" width="92" height="5.82278" fill="#8139B0"/>
<rect y="128.101" width="92" height="5.82278" fill="#8139B0"/>
</g>
<defs>
<clipPath id="clip0">
<rect width="92" height="305" fill="white"/>
</clipPath>
</defs>
</svg>
